<?xml version="1.0" encoding="UTF-8"?>
<svg xmlns="http://www.w3.org/2000/svg" xmlns:xlink="http://www.w3.org/1999/xlink" width="48pt" height="48pt" viewBox="0 0 48 48" version="1.1">
<g id="surface1">
<path style=" stroke:none;fill-rule:nonzero;fill:rgb(74.117647%,62.352941%,47.45098%);fill-opacity:1;" d="M 36.5625 40.597656 L 36 47.234375 L 12 47.234375 L 11.4375 40.597656 Z M 36.5625 40.597656 "/>
<path style=" stroke:none;fill-rule:nonzero;fill:rgb(74.117647%,62.352941%,47.45098%);fill-opacity:1;" d="M 39.0625 10.980469 L 38.503906 17.617188 L 9.496094 17.617188 L 8.9375 10.980469 Z M 39.0625 10.980469 "/>
<path style=" stroke:none;fill-rule:nonzero;fill:rgb(97.647059%,92.156863%,85.882353%);fill-opacity:1;" d="M 38.503906 17.617188 L 36.5625 40.597656 L 11.4375 40.597656 L 9.496094 17.617188 Z M 29.191406 34.300781 C 31.167969 32.324219 30.445312 28.398438 27.578125 25.527344 C 24.710938 22.660156 20.78125 21.9375 18.808594 23.914062 C 16.832031 25.890625 17.554688 29.816406 20.421875 32.683594 C 23.289062 35.554688 27.21875 36.277344 29.191406 34.300781 Z M 29.191406 34.300781 "/>
<path style=" stroke:none;fill-rule:nonzero;fill:rgb(71.764706%,33.333333%,28.235294%);fill-opacity:1;" d="M 18.808594 23.914062 L 29.191406 34.300781 C 27.21875 36.277344 23.289062 35.550781 20.421875 32.683594 C 17.554688 29.816406 16.832031 25.890625 18.808594 23.914062 Z M 18.808594 23.914062 "/>
<path style=" stroke:none;fill-rule:nonzero;fill:rgb(55.686275%,25.882353%,21.960784%);fill-opacity:1;" d="M 27.578125 25.527344 C 30.445312 28.398438 31.167969 32.324219 29.191406 34.300781 L 18.808594 23.914062 C 20.78125 21.9375 24.710938 22.660156 27.578125 25.527344 Z M 27.578125 25.527344 "/>
<path style=" stroke:none;fill-rule:nonzero;fill:rgb(90.980392%,83.921569%,74.117647%);fill-opacity:1;" d="M 36 0.765625 L 37.53125 6.894531 L 10.46875 6.894531 L 12 0.765625 Z M 36 0.765625 "/>
<path style=" stroke:none;fill-rule:nonzero;fill:rgb(97.647059%,92.156863%,85.882353%);fill-opacity:1;" d="M 7.402344 6.894531 L 40.597656 6.894531 L 40.597656 10.980469 L 7.402344 10.980469 Z M 7.402344 6.894531 "/>
<path style=" stroke:none;fill-rule:nonzero;fill:rgb(43.921569%,5.098039%,0%);fill-opacity:1;" d="M 26.25 36.179688 C 27.652344 36.179688 28.855469 35.71875 29.734375 34.84375 C 30.875 33.699219 31.308594 32.019531 30.957031 30.109375 C 30.621094 28.300781 29.617188 26.480469 28.121094 24.988281 C 26.269531 23.136719 23.890625 22.035156 21.75 22.035156 C 20.34375 22.035156 19.140625 22.496094 18.265625 23.371094 C 17.125 24.511719 16.691406 26.191406 17.042969 28.101562 C 17.378906 29.910156 18.382812 31.730469 19.878906 33.226562 C 21.730469 35.074219 24.109375 36.179688 26.25 36.179688 Z M 18.882812 25.074219 L 20.878906 27.070312 C 21.027344 27.21875 21.226562 27.292969 21.421875 27.292969 C 21.617188 27.292969 21.8125 27.21875 21.960938 27.070312 C 22.261719 26.769531 22.261719 26.285156 21.960938 25.984375 L 19.964844 23.988281 C 20.464844 23.710938 21.070312 23.566406 21.75 23.566406 C 23.492188 23.566406 25.46875 24.5 27.035156 26.070312 C 28.316406 27.347656 29.171875 28.882812 29.449219 30.386719 C 29.644531 31.457031 29.527344 32.40625 29.117188 33.140625 L 24.128906 28.152344 C 23.828125 27.851562 23.34375 27.851562 23.046875 28.152344 C 22.746094 28.453125 22.746094 28.9375 23.046875 29.234375 L 28.035156 34.222656 C 27.535156 34.503906 26.929688 34.648438 26.25 34.648438 C 24.507812 34.648438 22.53125 33.710938 20.964844 32.144531 C 19.683594 30.863281 18.828125 29.332031 18.550781 27.824219 C 18.355469 26.757812 18.472656 25.808594 18.882812 25.074219 Z M 18.882812 25.074219 "/>
<path style=" stroke:none;fill-rule:nonzero;fill:rgb(43.921569%,5.098039%,0%);fill-opacity:1;" d="M 40.597656 6.128906 L 38.128906 6.128906 L 36.742188 0.582031 C 36.65625 0.238281 36.351562 0 36 0 L 12 0 C 11.648438 0 11.34375 0.238281 11.257812 0.582031 L 9.871094 6.128906 L 7.402344 6.128906 C 6.980469 6.128906 6.636719 6.46875 6.636719 6.894531 L 6.636719 10.980469 C 6.636719 11.402344 6.980469 11.746094 7.402344 11.746094 L 8.230469 11.746094 L 9.574219 27.644531 C 9.609375 28.042969 9.945312 28.347656 10.339844 28.347656 C 10.359375 28.347656 10.382812 28.34375 10.402344 28.34375 C 10.824219 28.308594 11.136719 27.9375 11.101562 27.515625 L 10.332031 18.382812 L 37.667969 18.382812 L 35.855469 39.828125 L 12.144531 39.828125 L 11.359375 30.570312 C 11.324219 30.148438 10.953125 29.832031 10.53125 29.871094 C 10.109375 29.90625 9.796875 30.277344 9.832031 30.699219 L 11.238281 47.296875 C 11.269531 47.695312 11.601562 48 12 48 L 36 48 C 36.398438 48 36.730469 47.695312 36.761719 47.296875 L 39.769531 11.746094 L 40.59375 11.746094 C 41.019531 11.746094 41.363281 11.402344 41.363281 10.980469 L 41.363281 6.894531 C 41.363281 6.46875 41.019531 6.128906 40.597656 6.128906 Z M 12.703125 46.46875 L 12.273438 41.363281 L 35.726562 41.363281 L 35.296875 46.46875 Z M 37.800781 16.851562 L 10.199219 16.851562 L 9.769531 11.746094 L 38.230469 11.746094 Z M 39.828125 10.210938 L 39.050781 10.210938 C 39.050781 10.210938 8.171875 10.210938 8.171875 10.210938 L 8.171875 7.660156 L 10.453125 7.660156 C 10.464844 7.660156 10.472656 7.660156 10.484375 7.660156 L 34.46875 7.660156 C 34.890625 7.660156 35.234375 7.316406 35.234375 6.894531 C 35.234375 6.46875 34.890625 6.128906 34.46875 6.128906 L 11.449219 6.128906 L 12.597656 1.53125 L 35.402344 1.53125 L 36.789062 7.078125 C 36.875 7.421875 37.179688 7.660156 37.53125 7.660156 L 39.828125 7.660156 Z M 39.828125 10.210938 "/>
</g>
</svg>
