<?xml version="1.0" encoding="UTF-8"?>
<svg xmlns="http://www.w3.org/2000/svg" xmlns:xlink="http://www.w3.org/1999/xlink" width="108pt" height="108pt" viewBox="0 0 108 108" version="1.1">
<g id="surface1">
<path style=" stroke:none;fill-rule:nonzero;fill:rgb(74.117647%,62.352941%,47.45098%);fill-opacity:1;" d="M 82.261719 91.339844 L 81 106.277344 L 27 106.277344 L 25.738281 91.339844 Z M 82.261719 91.339844 "/>
<path style=" stroke:none;fill-rule:nonzero;fill:rgb(74.117647%,62.352941%,47.45098%);fill-opacity:1;" d="M 87.894531 24.703125 L 86.632812 39.636719 L 21.367188 39.636719 L 20.105469 24.703125 Z M 87.894531 24.703125 "/>
<path style=" stroke:none;fill-rule:nonzero;fill:rgb(97.647059%,92.156863%,85.882353%);fill-opacity:1;" d="M 86.632812 39.636719 L 82.261719 91.339844 L 25.738281 91.339844 L 21.367188 39.636719 Z M 65.683594 77.175781 C 70.132812 72.726562 68.503906 63.890625 62.050781 57.4375 C 55.597656 50.984375 46.761719 49.359375 42.316406 53.804688 C 37.867188 58.25 39.496094 67.085938 45.949219 73.542969 C 52.402344 79.992188 61.238281 81.621094 65.683594 77.175781 Z M 65.683594 77.175781 "/>
<path style=" stroke:none;fill-rule:nonzero;fill:rgb(71.764706%,33.333333%,28.235294%);fill-opacity:1;" d="M 42.316406 53.804688 L 65.683594 77.175781 C 61.238281 81.621094 52.402344 79.992188 45.949219 73.542969 C 39.496094 67.085938 37.867188 58.25 42.316406 53.804688 Z M 42.316406 53.804688 "/>
<path style=" stroke:none;fill-rule:nonzero;fill:rgb(55.686275%,25.882353%,21.960784%);fill-opacity:1;" d="M 62.050781 57.4375 C 68.503906 63.890625 70.132812 72.726562 65.683594 77.175781 L 42.316406 53.804688 C 46.761719 49.359375 55.597656 50.984375 62.050781 57.4375 Z M 62.050781 57.4375 "/>
<path style=" stroke:none;fill-rule:nonzero;fill:rgb(90.980392%,83.921569%,74.117647%);fill-opacity:1;" d="M 81 1.722656 L 84.445312 15.511719 L 23.554688 15.511719 L 27 1.722656 Z M 81 1.722656 "/>
<path style=" stroke:none;fill-rule:nonzero;fill:rgb(97.647059%,92.156863%,85.882353%);fill-opacity:1;" d="M 16.660156 15.511719 L 91.339844 15.511719 L 91.339844 24.703125 L 16.660156 24.703125 Z M 16.660156 15.511719 "/>
<path style=" stroke:none;fill-rule:nonzero;fill:rgb(43.921569%,5.098039%,0%);fill-opacity:1;" d="M 59.066406 81.402344 C 62.21875 81.402344 64.929688 80.363281 66.898438 78.398438 C 69.46875 75.820312 70.441406 72.042969 69.648438 67.746094 C 68.902344 63.679688 66.636719 59.585938 63.269531 56.21875 C 59.109375 52.058594 53.75 49.574219 48.933594 49.574219 C 45.777344 49.574219 43.066406 50.617188 41.097656 52.585938 C 38.535156 55.148438 37.558594 58.929688 38.351562 63.234375 C 39.097656 67.300781 41.363281 71.394531 44.730469 74.757812 C 48.890625 78.917969 54.25 81.402344 59.066406 81.402344 Z M 42.488281 56.414062 L 46.980469 60.90625 C 47.316406 61.242188 47.757812 61.410156 48.199219 61.410156 C 48.636719 61.410156 49.078125 61.242188 49.417969 60.90625 C 50.089844 60.230469 50.089844 59.140625 49.417969 58.46875 L 44.925781 53.976562 C 46.050781 53.347656 47.410156 53.023438 48.933594 53.023438 C 52.855469 53.023438 57.304688 55.128906 60.832031 58.65625 C 63.710938 61.535156 65.636719 64.984375 66.261719 68.371094 C 66.703125 70.777344 66.433594 72.914062 65.511719 74.5625 L 54.289062 63.34375 C 53.617188 62.667969 52.527344 62.667969 51.851562 63.34375 C 51.179688 64.015625 51.179688 65.105469 51.851562 65.78125 L 63.074219 77.003906 C 61.949219 77.628906 60.589844 77.957031 59.066406 77.957031 C 55.144531 77.957031 50.695312 75.851562 47.167969 72.320312 C 44.289062 69.445312 42.363281 65.996094 41.738281 62.609375 C 41.296875 60.203125 41.566406 58.066406 42.488281 56.414062 Z M 42.488281 56.414062 "/>
<path style=" stroke:none;fill-rule:nonzero;fill:rgb(43.921569%,5.098039%,0%);fill-opacity:1;" d="M 91.339844 13.789062 L 85.792969 13.789062 L 82.671875 1.304688 C 82.480469 0.539062 81.789062 0 81 0 L 27 0 C 26.210938 0 25.519531 0.539062 25.328125 1.304688 L 22.207031 13.789062 L 16.660156 13.789062 C 15.707031 13.789062 14.9375 14.558594 14.9375 15.511719 L 14.9375 24.703125 C 14.9375 25.652344 15.707031 26.425781 16.660156 26.425781 L 18.523438 26.425781 L 21.546875 62.199219 C 21.621094 63.097656 22.375 63.777344 23.261719 63.777344 C 23.308594 63.777344 23.359375 63.777344 23.40625 63.773438 C 24.355469 63.691406 25.058594 62.859375 24.980469 61.910156 L 23.242188 41.363281 L 84.757812 41.363281 L 80.679688 89.617188 L 27.320312 89.617188 L 25.558594 68.777344 C 25.480469 67.832031 24.644531 67.125 23.699219 67.207031 C 22.75 67.285156 22.046875 68.121094 22.125 69.070312 L 25.28125 106.421875 C 25.359375 107.3125 26.105469 108 27 108 L 81 108 C 81.894531 108 82.640625 107.3125 82.71875 106.421875 L 89.476562 26.425781 L 91.339844 26.425781 C 92.292969 26.425781 93.0625 25.652344 93.0625 24.703125 L 93.0625 15.511719 C 93.0625 14.558594 92.292969 13.789062 91.339844 13.789062 Z M 28.582031 104.554688 L 27.613281 93.0625 L 80.386719 93.0625 L 79.414062 104.554688 Z M 85.046875 37.914062 L 22.953125 37.914062 L 21.980469 26.425781 L 86.019531 26.425781 Z M 89.617188 22.980469 L 87.863281 22.980469 C 87.863281 22.980469 18.382812 22.980469 18.382812 22.980469 L 18.382812 17.234375 L 23.515625 17.234375 C 23.542969 17.234375 23.566406 17.234375 23.589844 17.234375 L 77.554688 17.234375 C 78.503906 17.234375 79.277344 16.460938 79.277344 15.511719 C 79.277344 14.558594 78.503906 13.789062 77.554688 13.789062 L 25.761719 13.789062 L 28.34375 3.445312 L 79.65625 3.445312 L 82.773438 15.929688 C 82.964844 16.695312 83.65625 17.234375 84.445312 17.234375 L 89.617188 17.234375 Z M 89.617188 22.980469 "/>
</g>
</svg>
